<?xml version="1.0" encoding="UTF-8"?>
<svg version="1.1" xmlns="http://www.w3.org/2000/svg" width="193" height="193">
    <path
        d="M0 0 C63.69 0 127.38 0 193 0 C193 63.69 193 127.38 193 193 C129.31 193 65.62 193 0 193 C0 129.31 0 65.62 0 0 Z "
        fill="#FEFEFE" transform="translate(0,0)" />
    <path
        d="M0 0 C16.64681041 -0.067834 33.29350208 -0.12304971 49.94041252 -0.15543652 C57.67061196 -0.17087686 65.40071916 -0.1919119 73.13085938 -0.22631836 C79.87186152 -0.2563078 86.61279683 -0.27559557 93.35386384 -0.28226548 C96.92013524 -0.28616166 100.4862155 -0.29525837 104.05242538 -0.31719017 C108.04268467 -0.34152865 112.03261586 -0.3419639 116.02294922 -0.34057617 C117.77838799 -0.35675491 117.77838799 -0.35675491 119.56929016 -0.3732605 C131.87672546 -0.32708415 140.77178279 2.70040842 150 11 C156.81374282 18.70008335 159.64863183 27.99510317 159.359375 38.19140625 C158.60775513 44.0654789 156.56456272 49.63337409 153.30078125 54.5703125 C151.80098663 56.84771474 151.80098663 56.84771474 152.16015625 59.07421875 C153.37391195 61.85738879 155.02558473 64.21614506 156.74609375 66.70703125 C161.35207348 75.12980415 161.29509385 85.96604003 159.3125 95.203125 C155.86582337 105.48571027 149.65980329 112.95288055 140 118 C132.30267471 121.03457855 125.13327177 121.41557058 116.93115234 121.34057617 C115.66172791 121.34101425 114.39230347 121.34145233 113.08441162 121.34190369 C109.6345699 121.34275761 106.18504686 121.32523099 102.73527861 121.30418181 C99.11850864 121.28531321 95.50172981 121.28365661 91.88491821 121.28010559 C85.04989978 121.27081482 78.21502686 121.24624169 71.38007224 121.21605712 C63.59282651 121.18242015 55.80557351 121.16600383 48.01827312 121.15097082 C32.01208369 121.1196891 16.00609447 121.06471467 0 121 C0 111.1 0 101.2 0 91 C6.6 91 13.2 91 20 91 C20 94.3 20 97.6 20 101 C35.18 101 50.36 101 66 101 C66 91.1 66 81.2 66 71 C60.06 71 54.12 71 48 71 C48 73.31 48 75.62 48 78 C41.4 78 34.8 78 28 78 C27.97709215 72.60647411 27.95716474 67.21311579 27.94506836 61.81958008 C27.94002769 59.98331125 27.93319523 58.14704646 27.92456055 56.31079102 C27.91248328 53.67723599 27.90676919 51.04373384 27.90234375 48.41015625 C27.89718246 47.58411392 27.89202118 46.75807159 27.88670349 45.90699768 C27.88650795 43.93763632 27.93795848 41.96838386 28 40 C29 39 29 39 30.85766602 38.88647461 C31.64842529 38.89171143 32.43918457 38.89694824 33.25390625 38.90234375 C34.53491211 38.90717773 34.53491211 38.90717773 35.84179688 38.91210938 C36.73962891 38.92048828 37.63746094 38.92886719 38.5625 38.9375 C39.46419922 38.94201172 40.36589844 38.94652344 41.29492188 38.95117188 C43.53001314 38.96299775 45.76497437 38.9794778 48 39 C48 41.64 48 44.28 48 47 C53.94 47 59.88 47 66 47 C66 38.09 66 29.18 66 20 C50.82 20 35.64 20 20 20 C20 23.3 20 26.6 20 30 C13.4 30 6.8 30 0 30 C0 20.1 0 10.2 0 0 Z "
        fill="#040404" transform="translate(16,36)" />
    <path
        d="M0 0 C5.01801728 -0.09207371 10.03307904 -0.17163196 15.05126953 -0.21972656 C16.75644894 -0.23978369 18.46156006 -0.26703657 20.16650391 -0.30175781 C22.62419524 -0.35053861 25.08097366 -0.37302719 27.5390625 -0.390625 C28.29555084 -0.41127014 29.05203918 -0.43191528 29.83145142 -0.45318604 C35.0163382 -0.45536081 37.86349608 0.62140538 42 4 C45.93713353 8.35156863 46.62990978 11.91464278 46.390625 17.59765625 C45.65316147 22.13305694 43.2983704 24.85900783 39.9375 27.8125 C35.77217264 30.36544257 31.76389262 30.13008628 27.05078125 30.09765625 C26.27816452 30.0962413 25.50554779 30.09482635 24.70951843 30.09336853 C22.24380611 30.08777466 19.77818485 30.07522333 17.3125 30.0625 C15.63997527 30.05748421 13.96744912 30.05292144 12.29492188 30.04882812 C8.19655134 30.03865847 4.09837752 30.01908194 0 30 C0 20.1 0 10.2 0 0 Z "
        fill="#FEFEFE" transform="translate(109,107)" />
    <path
        d="M0 0 C4.73281335 -0.06907349 9.46386056 -0.12874284 14.19677734 -0.16479492 C15.80491072 -0.17983176 17.41300344 -0.20026672 19.02099609 -0.22631836 C21.33962064 -0.26292822 23.65770049 -0.27977722 25.9765625 -0.29296875 C27.04567368 -0.31619453 27.04567368 -0.31619453 28.13638306 -0.33988953 C34.04565736 -0.34185791 37.94181797 1.21263139 42.375 5.0625 C44.75126166 9.35804992 44.65006434 13.19586594 44 18 C42.26818449 22.1928165 39.78287714 24.54051086 36 27 C33.07610968 27.34288103 30.54730293 27.46951879 27.63671875 27.390625 C26.84473587 27.38496521 26.05275299 27.37930542 25.23677063 27.37347412 C22.71971906 27.35117308 20.20411757 27.30099139 17.6875 27.25 C15.97593209 27.22992675 14.26434176 27.21167742 12.55273438 27.1953125 C8.36748841 27.15473813 4.18535733 27.07644488 0 27 C0 18.09 0 9.18 0 0 Z "
        fill="#FEFEFE" transform="translate(109,56)" />
</svg>